<svg xmlns="http://www.w3.org/2000/svg" width="20" height="20" viewBox="0 0 20 20" fill="none">
  <path d="M 19 8 C 19.552 8 20 8.448 20 9 L 20 10 C 20 15.523 15.523 20 10 20 C 4.477 20 0 15.523 0 10 L 0 9 C 0 8.448 0.448 8 1 8 C 1.552 8 2 8.448 2 9 L 2 10 C 2 14.418 5.582 18 10 18 C 14.418 18 18 14.418 18 10 L 18 9 C 18 8.448 18.448 8 19 8 Z" fill="currentColor" fill-rule="evenodd"></path>
  <path d="M 20 9 C 20 9.552 19.552 10 19 10 L 1 10 C 0.448 10 0 9.552 0 9 C 0 8.448 0.448 8 1 8 L 19 8 C 19.552 8 20 8.448 20 9 Z" fill="currentColor" fill-rule="evenodd"></path>
  <path d="M 19 10 C 19.552 10 20 9.552 20 9 C 20 6.239 17.761 4 15 4 C 12.239 4 10 6.239 10 9 C 10 9.552 10.448 10 11 10 C 11.552 10 12 9.552 12 9 C 12 7.343 13.343 6 15 6 C 16.657 6 18 7.343 18 9 C 18 9.552 18.448 10 19 10 Z" fill="currentColor" fill-rule="evenodd"></path>
  <path d="M 6.903 0 C 7.556 0 8.143 0.309 8.567 0.799 L 9.457 1.826 C 9.544 1.927 9.602 1.933 9.605 1.934 L 10.77 2.06 C 12.142 2.208 12.875 3.553 12.945 4.735 L 12.946 4.747 L 12.999 6.299 L 11.001 6.368 L 10.948 4.842 C 10.929 4.556 10.837 4.333 10.736 4.197 C 10.634 4.059 10.559 4.049 10.555 4.048 L 9.39 3.922 C 8.805 3.859 8.306 3.553 7.945 3.135 L 7.055 2.108 C 7.004 2.049 6.962 2.022 6.94 2.011 C 6.918 2 6.906 2 6.903 2 C 6.9 2 6.889 2 6.867 2.011 C 6.844 2.022 6.802 2.049 6.751 2.108 L 5.861 3.135 C 5.5 3.553 5.001 3.859 4.416 3.922 L 3.251 4.048 C 3.247 4.049 3.172 4.059 3.07 4.197 C 2.968 4.335 2.875 4.561 2.858 4.853 L 2.765 6.432 C 2.753 6.635 2.691 6.916 2.636 7.143 C 2.574 7.402 2.492 7.705 2.407 8 C 2.321 8.295 2.229 8.593 2.143 8.843 C 2.073 9.046 1.967 9.34 1.847 9.532 L 0.153 8.468 C 0.142 8.486 0.143 8.483 0.156 8.452 C 0.171 8.414 0.203 8.332 0.252 8.192 C 0.324 7.982 0.406 7.717 0.486 7.444 C 0.565 7.17 0.638 6.898 0.692 6.675 C 0.745 6.453 0.764 6.342 0.768 6.319 C 0.768 6.315 0.768 6.314 0.768 6.314 L 0.861 4.735 C 0.931 3.553 1.665 2.208 3.036 2.06 L 4.201 1.934 C 4.204 1.933 4.262 1.927 4.349 1.826 L 5.239 0.799 C 5.663 0.309 6.25 0 6.903 0 Z" fill="currentColor" fill-rule="evenodd"></path>
  <path d="M 14 14 C 14 14.552 13.552 15 13 15 L 7 15 C 6.448 15 6 14.552 6 14 C 6 13.448 6.448 13 7 13 L 13 13 C 13.552 13 14 13.448 14 14 Z" fill="currentColor" fill-rule="evenodd"></path>
</svg>