<svg xmlns="http://www.w3.org/2000/svg" width="20" height="20" viewBox="0 0 20 20" fill="none">
  <path d="M 12 4 L 8 4 C 6.058 4 4.802 4.004 3.877 4.129 C 3.01 4.245 2.738 4.434 2.586 4.586 C 2.434 4.738 2.245 5.01 2.129 5.877 C 2.004 6.802 2 8.058 2 10 L 2 12 C 2 13.942 2.004 15.198 2.129 16.123 C 2.245 16.99 2.434 17.262 2.586 17.414 C 2.738 17.566 3.01 17.755 3.877 17.871 C 4.802 17.996 6.058 18 8 18 L 12 18 C 13.942 18 15.198 17.996 16.123 17.871 C 16.99 17.755 17.262 17.566 17.414 17.414 C 17.566 17.262 17.755 16.99 17.871 16.123 C 17.996 15.198 18 13.942 18 12 L 18 10 C 18 8.058 17.996 6.802 17.871 5.877 C 17.755 5.01 17.566 4.738 17.414 4.586 C 17.262 4.434 16.99 4.245 16.123 4.129 C 15.198 4.004 13.942 4 12 4 Z M 1.172 3.172 C 0 4.343 0 6.229 0 10 L 0 12 C 0 15.771 0 17.657 1.172 18.828 C 2.343 20 4.229 20 8 20 L 12 20 C 15.771 20 17.657 20 18.828 18.828 C 20 17.657 20 15.771 20 12 L 20 10 C 20 6.229 20 4.343 18.828 3.172 C 17.657 2 15.771 2 12 2 L 8 2 C 4.229 2 2.343 2 1.172 3.172 Z" fill="currentColor" fill-rule="evenodd"></path>
  <path d="M 6 0 C 6.552 0 7 0.448 7 1 L 7 5 C 7 5.552 6.552 6 6 6 C 5.448 6 5 5.552 5 5 L 5 1 C 5 0.448 5.448 0 6 0 Z" fill="currentColor" fill-rule="evenodd"></path>
  <path d="M 14 0 C 14.552 0 15 0.448 15 1 L 15 5 C 15 5.552 14.552 6 14 6 C 13.448 6 13 5.552 13 5 L 13 1 C 13 0.448 13.448 0 14 0 Z" fill="currentColor" fill-rule="evenodd"></path>
  <path d="M 11 9 C 11 9.552 10.552 10 10 10 C 9.448 10 9 9.552 9 9 C 9 8.448 9.448 8 10 8 C 10.552 8 11 8.448 11 9 Z" fill="currentColor" fill-rule="nonzero"></path>
  <path d="M 11 13 C 11 13.552 10.552 14 10 14 C 9.448 14 9 13.552 9 13 C 9 12.448 9.448 12 10 12 C 10.552 12 11 12.448 11 13 Z" fill="currentColor" fill-rule="nonzero"></path>
  <path d="M 7 9 C 7 9.552 6.552 10 6 10 C 5.448 10 5 9.552 5 9 C 5 8.448 5.448 8 6 8 C 6.552 8 7 8.448 7 9 Z" fill="currentColor" fill-rule="nonzero"></path>
  <path d="M 7 13 C 7 13.552 6.552 14 6 14 C 5.448 14 5 13.552 5 13 C 5 12.448 5.448 12 6 12 C 6.552 12 7 12.448 7 13 Z" fill="currentColor" fill-rule="nonzero"></path>
  <path d="M 15 9 C 15 9.552 14.552 10 14 10 C 13.448 10 13 9.552 13 9 C 13 8.448 13.448 8 14 8 C 14.552 8 15 8.448 15 9 Z" fill="currentColor" fill-rule="nonzero"></path>
</svg>