<svg xmlns="http://www.w3.org/2000/svg" width="20" height="20" viewBox="0 0 20 20" fill="none">
  <path d="M 2 6 L 8 6 C 8.999 6 9.548 5.996 9.928 5.945 C 9.933 5.944 9.938 5.943 9.943 5.943 C 9.943 5.938 9.944 5.933 9.945 5.928 C 9.996 5.548 10 4.999 10 4 C 10 3.001 9.996 2.452 9.945 2.072 C 9.944 2.067 9.943 2.062 9.943 2.057 C 9.938 2.057 9.933 2.056 9.928 2.055 C 9.548 2.004 8.999 2 8 2 L 4 2 C 3.001 2 2.452 2.004 2.072 2.055 C 2.067 2.056 2.062 2.057 2.057 2.057 C 2.057 2.062 2.056 2.067 2.055 2.072 C 2.004 2.452 2 3.001 2 4 L 2 6 Z M 1.862 2.097 L 1.864 2.096 Z M 9.903 1.862 L 9.904 1.864 Z M 9.903 6.138 L 9.904 6.136 Z M 10.136 5.904 L 10.138 5.903 Z M 0 8 L 0 4 C 0 2.114 0 1.172 0.586 0.586 C 1.172 0 2.114 0 4 0 L 8 0 C 9.886 0 10.828 0 11.414 0.586 C 12 1.172 12 2.114 12 4 C 12 5.886 12 6.828 11.414 7.414 C 10.828 8 9.886 8 8 8 L 0 8 Z" fill="currentColor" fill-rule="evenodd"></path>
  <path d="M 2 12 L 16 12 C 16.999 12 17.548 11.996 17.928 11.945 C 17.933 11.944 17.938 11.943 17.943 11.943 C 17.943 11.938 17.944 11.933 17.945 11.928 C 17.996 11.548 18 10.999 18 10 C 18 9.001 17.996 8.452 17.945 8.072 C 17.944 8.067 17.943 8.062 17.943 8.057 C 17.938 8.057 17.933 8.056 17.928 8.055 C 17.548 8.004 16.999 8 16 8 L 2 8 L 2 12 Z M 17.903 7.862 L 17.904 7.864 Z M 17.903 12.138 L 17.904 12.136 Z M 18.136 11.904 L 18.138 11.903 Z M 0 14 L 0 6 L 16 6 C 17.886 6 18.828 6 19.414 6.586 C 20 7.172 20 8.114 20 10 C 20 11.886 20 12.828 19.414 13.414 C 18.828 14 17.886 14 16 14 L 0 14 Z" fill="currentColor" fill-rule="evenodd"></path>
  <path d="M 4 18 L 12 18 C 12.999 18 13.548 17.996 13.928 17.945 C 13.933 17.944 13.938 17.943 13.943 17.943 C 13.943 17.938 13.944 17.933 13.945 17.928 C 13.996 17.548 14 16.999 14 16 C 14 15.001 13.996 14.452 13.945 14.072 C 13.944 14.067 13.943 14.062 13.943 14.057 C 13.938 14.057 13.933 14.056 13.928 14.055 C 13.548 14.004 12.999 14 12 14 L 4 14 C 3.001 14 2.452 14.004 2.072 14.055 C 2.067 14.056 2.062 14.057 2.057 14.057 C 2.057 14.062 2.056 14.067 2.055 14.072 C 2.004 14.452 2 15.001 2 16 C 2 16.999 2.004 17.548 2.055 17.928 C 2.056 17.933 2.057 17.938 2.057 17.943 C 2.062 17.943 2.067 17.944 2.072 17.945 C 2.452 17.996 3.001 18 4 18 Z M 1.862 17.903 L 1.864 17.904 Z M 1.862 14.097 L 1.864 14.096 Z M 13.903 13.862 L 13.904 13.864 Z M 13.903 18.138 L 13.904 18.136 Z M 14.136 17.904 L 14.138 17.903 Z M 12 20 L 4 20 C 2.114 20 1.172 20 0.586 19.414 C 0 18.828 0 17.886 0 16 C 0 14.114 0 13.172 0.586 12.586 C 1.172 12 2.114 12 4 12 L 12 12 C 13.886 12 14.828 12 15.414 12.586 C 16 13.172 16 14.114 16 16 C 16 17.886 16 18.828 15.414 19.414 C 14.828 20 13.886 20 12 20 Z" fill="currentColor" fill-rule="evenodd"></path>
</svg>