<svg xmlns="http://www.w3.org/2000/svg" width="20" height="20" viewBox="0 0 20 20" fill="none">
  <path d="M 6 18 L 6 12 C 6 11.001 5.996 10.452 5.945 10.072 C 5.944 10.067 5.943 10.062 5.943 10.057 C 5.938 10.057 5.933 10.056 5.928 10.055 C 5.548 10.004 4.999 10 4 10 C 3.001 10 2.452 10.004 2.072 10.055 C 2.067 10.056 2.062 10.057 2.057 10.057 C 2.057 10.062 2.056 10.067 2.055 10.072 C 2.004 10.452 2 11.001 2 12 L 2 16 C 2 16.999 2.004 17.548 2.055 17.928 C 2.056 17.933 2.057 17.938 2.057 17.943 C 2.062 17.943 2.067 17.944 2.072 17.945 C 2.452 17.996 3.001 18 4 18 L 6 18 Z M 2.097 18.138 L 2.096 18.136 Z M 1.862 10.097 L 1.864 10.096 Z M 6.138 10.097 L 6.136 10.096 Z M 5.904 9.864 L 5.903 9.862 Z M 8 20 L 4 20 C 2.114 20 1.172 20 0.586 19.414 C 0 18.828 0 17.886 0 16 L 0 12 C 0 10.114 0 9.172 0.586 8.586 C 1.172 8 2.114 8 4 8 C 5.886 8 6.828 8 7.414 8.586 C 8 9.172 8 10.114 8 12 L 8 20 Z" fill="currentColor" fill-rule="evenodd"></path>
  <path d="M 12 18 L 12 4 C 12 3.001 11.996 2.452 11.945 2.072 C 11.944 2.067 11.943 2.062 11.943 2.057 C 11.938 2.057 11.933 2.056 11.928 2.055 C 11.548 2.004 10.999 2 10 2 C 9.001 2 8.452 2.004 8.072 2.055 C 8.067 2.056 8.062 2.057 8.057 2.057 C 8.057 2.062 8.056 2.067 8.055 2.072 C 8.004 2.452 8 3.001 8 4 L 8 18 L 12 18 Z M 7.862 2.097 L 7.864 2.096 Z M 12.138 2.097 L 12.136 2.096 Z M 11.904 1.864 L 11.903 1.862 Z M 14 20 L 6 20 L 6 4 C 6 2.114 6 1.172 6.586 0.586 C 7.172 0 8.114 0 10 0 C 11.886 0 12.828 0 13.414 0.586 C 14 1.172 14 2.114 14 4 L 14 20 Z" fill="currentColor" fill-rule="evenodd"></path>
  <path d="M 18 16 L 18 8 C 18 7.001 17.996 6.452 17.945 6.072 C 17.944 6.067 17.943 6.062 17.943 6.057 C 17.938 6.057 17.933 6.056 17.928 6.055 C 17.548 6.004 16.999 6 16 6 C 15.001 6 14.452 6.004 14.072 6.055 C 14.067 6.056 14.062 6.057 14.057 6.057 C 14.057 6.062 14.056 6.067 14.055 6.072 C 14.004 6.452 14 7.001 14 8 L 14 16 C 14 16.999 14.004 17.548 14.055 17.928 C 14.056 17.933 14.057 17.938 14.057 17.943 C 14.062 17.943 14.067 17.944 14.072 17.945 C 14.452 17.996 15.001 18 16 18 C 16.999 18 17.548 17.996 17.928 17.945 C 17.933 17.944 17.938 17.943 17.943 17.943 C 17.943 17.938 17.944 17.933 17.945 17.928 C 17.996 17.548 18 16.999 18 16 Z M 17.903 18.138 L 17.904 18.136 Z M 14.097 18.138 L 14.096 18.136 Z M 13.862 6.097 L 13.864 6.096 Z M 18.138 6.097 L 18.136 6.096 Z M 17.904 5.864 L 17.903 5.862 Z M 20 8 L 20 16 C 20 17.886 20 18.828 19.414 19.414 C 18.828 20 17.886 20 16 20 C 14.114 20 13.172 20 12.586 19.414 C 12 18.828 12 17.886 12 16 L 12 8 C 12 6.114 12 5.172 12.586 4.586 C 13.172 4 14.114 4 16 4 C 17.886 4 18.828 4 19.414 4.586 C 20 5.172 20 6.114 20 8 Z" fill="currentColor" fill-rule="evenodd"></path>
</svg>