<svg xmlns="http://www.w3.org/2000/svg" width="16" height="20" viewBox="0 0 16 20" fill="none">
  <path d="M 4.5 3 C 3.119 3 2 4.119 2 5.5 L 2 12 C 2 13.425 2.001 14.419 2.079 15.185 C 2.155 15.934 2.297 16.354 2.506 16.667 C 2.724 16.994 3.006 17.276 3.333 17.494 C 3.646 17.703 4.066 17.845 4.815 17.921 C 5.581 17.999 6.575 18 8 18 C 9.425 18 10.419 17.999 11.185 17.921 C 11.934 17.845 12.354 17.703 12.667 17.494 C 12.994 17.276 13.276 16.994 13.494 16.667 C 13.703 16.354 13.845 15.934 13.921 15.185 C 13.999 14.419 14 13.425 14 12 L 14 5.5 C 14 4.119 12.881 3 11.5 3 L 11.5 1 C 13.985 1 16 3.015 16 5.5 L 16 12.054 C 16 13.413 16 14.508 15.911 15.387 C 15.818 16.295 15.622 17.082 15.157 17.778 C 14.793 18.324 14.324 18.793 13.778 19.157 C 13.082 19.622 12.295 19.818 11.387 19.911 C 10.508 20 9.413 20 8.054 20 L 7.946 20 C 6.587 20 5.492 20 4.613 19.911 C 3.705 19.818 2.918 19.622 2.222 19.157 C 1.676 18.793 1.207 18.324 0.843 17.778 C 0.378 17.082 0.182 16.295 0.089 15.387 C 0 14.508 0 13.413 0 12.054 L 0 5.5 C 0 3.015 2.015 1 4.5 1 L 4.5 3 Z" fill="currentColor" fill-rule="evenodd"></path>
  <path d="M 10 2 L 6 2 C 5.507 2 5.237 2.001 5.042 2.014 C 5.033 2.015 5.024 2.016 5.016 2.016 C 5.016 2.024 5.015 2.033 5.014 2.042 C 5.001 2.237 5 2.507 5 3 C 5 3.493 5.001 3.763 5.014 3.958 C 5.015 3.967 5.016 3.976 5.016 3.984 C 5.024 3.984 5.033 3.985 5.042 3.986 C 5.237 3.999 5.507 4 6 4 L 10 4 C 10.493 4 10.763 3.999 10.958 3.986 C 10.967 3.985 10.976 3.984 10.984 3.984 C 10.984 3.976 10.985 3.967 10.986 3.958 C 10.999 3.763 11 3.493 11 3 C 11 2.507 10.999 2.237 10.986 2.042 C 10.985 2.033 10.984 2.024 10.984 2.016 C 10.976 2.016 10.967 2.015 10.958 2.014 C 10.763 2.001 10.493 2 10 2 Z M 3.152 1.235 C 3 1.602 3 2.068 3 3 C 3 3.932 3 4.398 3.152 4.765 C 3.355 5.255 3.745 5.645 4.235 5.848 C 4.602 6 5.068 6 6 6 L 10 6 C 10.932 6 11.398 6 11.765 5.848 C 12.255 5.645 12.645 5.255 12.848 4.765 C 13 4.398 13 3.932 13 3 C 13 2.068 13 1.602 12.848 1.235 C 12.645 0.745 12.255 0.355 11.765 0.152 C 11.398 0 10.932 0 10 0 L 6 0 C 5.068 0 4.602 0 4.235 0.152 C 3.745 0.355 3.355 0.745 3.152 1.235 Z" fill="currentColor" fill-rule="evenodd"></path>
  <path d="M 12 10 C 12 10.552 11.552 11 11 11 L 5 11 C 4.448 11 4 10.552 4 10 C 4 9.448 4.448 9 5 9 L 11 9 C 11.552 9 12 9.448 12 10 Z" fill="currentColor" fill-rule="evenodd"></path>
  <path d="M 12 14 C 12 14.552 11.552 15 11 15 L 5 15 C 4.448 15 4 14.552 4 14 C 4 13.448 4.448 13 5 13 L 11 13 C 11.552 13 12 13.448 12 14 Z" fill="currentColor" fill-rule="evenodd"></path>
</svg>