<svg xmlns="http://www.w3.org/2000/svg" width="14" height="20.000" viewBox="0 0 14 20.000" fill="none">
  <path d="M 0.263 4.324 C 0.453 4.118 0.72 4 1 4 L 13 4 C 13.28 4 13.547 4.118 13.737 4.324 C 13.926 4.53 14.02 4.807 13.996 5.086 L 13.105 15.489 C 13.035 16.305 12.974 17.011 12.851 17.574 C 12.719 18.18 12.49 18.754 11.993 19.21 C 11.495 19.667 10.905 19.846 10.29 19.926 C 9.717 20 9.009 20 8.191 20 L 5.809 20 C 4.991 20 4.283 20 3.71 19.926 C 3.095 19.846 2.505 19.667 2.007 19.21 C 1.51 18.754 1.281 18.18 1.149 17.574 C 1.026 17.011 0.965 16.305 0.895 15.489 L 0.004 5.086 C -0.02 4.807 0.074 4.53 0.263 4.324 Z M 2.089 6 L 2.883 15.256 C 2.96 16.152 3.011 16.727 3.103 17.149 C 3.189 17.543 3.284 17.667 3.36 17.737 C 3.436 17.807 3.568 17.891 3.968 17.943 C 4.396 17.998 4.973 18 5.872 18 L 8.128 18 C 9.027 18 9.604 17.998 10.032 17.943 C 10.432 17.891 10.564 17.807 10.64 17.737 C 10.716 17.667 10.811 17.543 10.897 17.149 C 10.989 16.727 11.04 16.152 11.117 15.256 L 11.911 6 L 2.089 6 Z" fill="currentColor" fill-rule="evenodd"></path>
  <path d="M 11.97 0.758 C 12.104 1.293 11.778 1.836 11.242 1.97 L 8 2.781 L 8 12 C 8 12.553 7.552 13 7 13 C 6.448 13 6 12.553 6 12 L 6 2 C 6 1.541 6.312 1.141 6.757 1.03 L 10.757 0.03 C 11.293 -0.104 11.836 0.222 11.97 0.758 Z" fill="currentColor" fill-rule="evenodd"></path>
</svg>