<svg xmlns="http://www.w3.org/2000/svg" width="16" height="20" viewBox="0 0 16 20" fill="none">
  <path d="M 3.428 2.727 C 2.247 3.209 2 3.716 2 4 C 2 4.284 2.247 4.791 3.428 5.273 C 4.537 5.726 6.148 6 8 6 C 9.852 6 11.463 5.726 12.572 5.273 C 13.753 4.791 14 4.284 14 4 C 14 3.716 13.753 3.209 12.572 2.727 C 11.463 2.274 9.852 2 8 2 C 6.148 2 4.537 2.274 3.428 2.727 Z M 14 6.809 C 13.781 6.927 13.555 7.032 13.328 7.125 C 11.903 7.706 10.014 8 8 8 C 5.986 8 4.097 7.706 2.672 7.125 C 2.445 7.032 2.219 6.927 2 6.809 L 2 10.429 C 2.003 10.431 2.007 10.433 2.01 10.435 C 2.325 10.606 2.789 10.838 3.371 11.072 C 4.542 11.54 6.163 12 8 12 C 9.837 12 11.458 11.54 12.629 11.072 C 13.211 10.838 13.675 10.606 13.99 10.435 C 13.993 10.433 13.997 10.431 14 10.429 L 14 6.809 Z M 14 12.661 C 13.806 12.749 13.596 12.839 13.371 12.928 C 12.042 13.46 10.163 14 8 14 C 5.837 14 3.958 13.46 2.629 12.928 C 2.404 12.839 2.194 12.749 2 12.661 L 2 16 C 2 16.284 2.247 16.791 3.428 17.273 C 4.537 17.726 6.148 18 8 18 C 9.852 18 11.463 17.726 12.572 17.273 C 13.753 16.791 14 16.284 14 16 L 14 12.661 Z M 0 11 L 0 4 C 0 2.42 1.32 1.427 2.672 0.875 C 4.097 0.294 5.986 0 8 0 C 10.014 0 11.903 0.294 13.328 0.875 C 14.68 1.427 16 2.42 16 4 L 16 16 C 16 17.58 14.68 18.573 13.328 19.125 C 11.903 19.706 10.014 20 8 20 C 5.986 20 4.097 19.706 2.672 19.125 C 1.32 18.573 0 17.58 0 16 L 0 11 Z" fill="currentColor" fill-rule="evenodd"></path>
</svg>