<svg xmlns="http://www.w3.org/2000/svg" width="18.001" height="20" viewBox="0 0 18.001 20" fill="none">
  <path d="M 17 7.946 L 17 8 C 17 8.552 16.552 9 16 9 C 15.448 9 15 8.552 15 8 C 15 6.575 14.999 5.581 14.921 4.815 C 14.845 4.066 14.703 3.646 14.494 3.333 C 14.276 3.006 13.994 2.724 13.667 2.506 C 13.354 2.297 12.934 2.155 12.185 2.079 C 11.419 2.001 10.425 2 9 2 L 8.5 2 C 6.832 2 5.669 2.002 4.781 2.107 C 3.915 2.209 3.442 2.397 3.097 2.681 C 2.945 2.806 2.806 2.945 2.681 3.097 C 2.397 3.442 2.209 3.915 2.107 4.781 C 2.002 5.669 2 6.832 2 8.5 L 2 14 C 2 14.977 2.005 15.32 2.058 15.585 C 2.294 16.775 3.225 17.706 4.415 17.942 C 4.68 17.995 5.023 18 6 18 C 6.552 18 7 18.448 7 19 C 7 19.552 6.552 20 6 20 C 5.961 20 5.922 20 5.884 20 C 5.067 20 4.509 20 4.025 19.904 C 2.041 19.509 0.491 17.959 0.096 15.975 C 0 15.491 0 14.933 0 14.116 C 0 14.078 0 14.039 0 14 L 0 8.437 C 0 6.847 0 5.565 0.12 4.546 C 0.245 3.491 0.511 2.589 1.135 1.828 C 1.343 1.575 1.575 1.343 1.828 1.135 C 2.589 0.511 3.491 0.245 4.546 0.12 C 5.565 0 6.847 0 8.437 0 L 9.054 0 C 10.413 0 11.508 0 12.387 0.089 C 13.295 0.182 14.082 0.378 14.778 0.843 C 15.324 1.207 15.793 1.676 16.157 2.222 C 16.623 2.918 16.818 3.705 16.911 4.613 C 17 5.492 17 6.587 17 7.946 Z" fill="currentColor" fill-rule="evenodd"></path>
  <path d="M 13 5 C 13 5.552 12.552 6 12 6 L 5 6 C 4.448 6 4 5.552 4 5 C 4 4.448 4.448 4 5 4 L 12 4 C 12.552 4 13 4.448 13 5 Z" fill="currentColor" fill-rule="evenodd"></path>
  <path d="M 10 9 C 10 9.552 9.552 10 9 10 L 5 10 C 4.448 10 4 9.552 4 9 C 4 8.448 4.448 8 5 8 L 9 8 C 9.552 8 10 8.448 10 9 Z" fill="currentColor" fill-rule="evenodd"></path>
  <path d="M 14 15 C 14 15.552 13.552 16 13 16 C 12.448 16 12 15.552 12 15 C 12 14.448 12.448 14 13 14 C 13.552 14 14 14.448 14 15 Z" fill="currentColor" fill-rule="nonzero"></path>
  <path d="M 13 12.002 C 12.997 12.004 12.994 12.005 12.99 12.007 C 12.936 12.031 12.863 12.068 12.719 12.142 L 10.197 13.444 C 10.128 13.479 10.075 13.507 10.029 13.531 C 10.019 13.537 10.009 13.542 10 13.546 C 10 13.588 10 13.637 10 13.699 L 10 16.301 C 10 16.363 10 16.412 10 16.454 C 10.009 16.458 10.019 16.464 10.029 16.469 C 10.075 16.493 10.129 16.521 10.197 16.557 L 12.719 17.858 C 12.863 17.932 12.936 17.969 12.99 17.993 C 12.994 17.995 12.997 17.996 13 17.998 C 13.003 17.996 13.007 17.995 13.01 17.993 C 13.064 17.969 13.137 17.932 13.281 17.858 L 15.803 16.557 C 15.871 16.521 15.925 16.493 15.971 16.469 C 15.981 16.464 15.991 16.459 16 16.454 C 16 16.412 16 16.364 16 16.303 L 16 13.697 C 16 13.636 16 13.588 16 13.546 C 15.991 13.542 15.982 13.537 15.973 13.532 C 15.927 13.508 15.874 13.48 15.806 13.445 L 13.28 12.142 C 13.136 12.068 13.064 12.031 13.01 12.007 C 13.006 12.005 13.003 12.004 13 12.002 Z M 13.006 18 C 13.006 18 13.006 18 13.006 18 Z M 13.006 18 C 13.005 18 13.005 18 13.005 18 Z M 12.621 10.036 C 12.871 9.988 13.129 9.988 13.379 10.036 C 13.671 10.091 13.933 10.227 14.141 10.336 C 14.16 10.346 14.179 10.355 14.197 10.365 L 16.723 11.668 C 16.741 11.677 16.76 11.687 16.78 11.697 C 16.983 11.801 17.255 11.94 17.467 12.15 C 17.654 12.336 17.802 12.561 17.895 12.816 C 18.003 13.115 18.002 13.431 18 13.638 C 18 13.659 18 13.678 18 13.697 L 18 16.303 C 18 16.321 18 16.341 18 16.362 C 18.002 16.569 18.003 16.885 17.895 17.184 C 17.802 17.439 17.654 17.664 17.467 17.849 C 17.254 18.061 16.982 18.2 16.777 18.305 C 16.757 18.315 16.738 18.324 16.72 18.334 L 14.198 19.635 C 14.18 19.644 14.161 19.654 14.143 19.664 C 13.934 19.772 13.671 19.909 13.379 19.964 C 13.129 20.012 12.871 20.012 12.621 19.964 C 12.329 19.909 12.067 19.772 11.858 19.664 C 11.839 19.654 11.82 19.644 11.802 19.635 L 9.28 18.334 C 9.262 18.324 9.243 18.315 9.223 18.304 C 9.018 18.2 8.746 18.061 8.533 17.849 C 8.346 17.664 8.198 17.439 8.105 17.184 C 7.997 16.885 7.999 16.568 8 16.36 C 8 16.339 8 16.32 8 16.301 L 8 13.699 C 8 13.68 8 13.661 8 13.64 C 7.999 13.432 7.997 13.115 8.105 12.816 C 8.198 12.562 8.346 12.336 8.533 12.15 C 8.745 11.939 9.018 11.8 9.222 11.696 C 9.242 11.686 9.261 11.676 9.28 11.666 L 11.802 10.365 C 11.82 10.356 11.839 10.346 11.857 10.336 C 12.067 10.227 12.329 10.091 12.621 10.036 Z" fill="currentColor" fill-rule="evenodd"></path>
</svg>