<svg xmlns="http://www.w3.org/2000/svg" width="20" height="14" viewBox="0 0 20 14" fill="none">
  <path d="M 0.086 7.405 C 3.981 16.198 16.019 16.198 19.914 7.405 C 20.029 7.147 20.029 6.853 19.914 6.595 C 16.019 -2.198 3.981 -2.198 0.086 6.595 C -0.029 6.853 -0.029 7.147 0.086 7.405 Z M 17.896 7 C 14.588 0.333 5.412 0.333 2.104 7 C 5.412 13.667 14.588 13.667 17.896 7 Z" fill="currentColor" fill-rule="evenodd"></path>
  <path d="M 10 9 C 11.105 9 12 8.105 12 7 C 12 5.895 11.105 5 10 5 C 8.895 5 8 5.895 8 7 C 8 8.105 8.895 9 10 9 Z M 10 11 C 12.209 11 14 9.209 14 7 C 14 4.791 12.209 3 10 3 C 7.791 3 6 4.791 6 7 C 6 9.209 7.791 11 10 11 Z" fill="currentColor" fill-rule="evenodd"></path>
</svg>