<svg xmlns="http://www.w3.org/2000/svg" width="20" height="10" viewBox="0 0 20 10" fill="none">
  <path d="M 0 5 C 0 2.239 2.239 0 5 0 L 7 0 C 7.552 0 8 0.448 8 1 C 8 1.552 7.552 2 7 2 L 5 2 C 3.343 2 2 3.343 2 5 C 2 6.657 3.343 8 5 8 L 7 8 C 7.552 8 8 8.448 8 9 C 8 9.552 7.552 10 7 10 L 5 10 C 2.239 10 0 7.761 0 5 Z" fill="currentColor" fill-rule="evenodd"></path>
  <path d="M 20 5 C 20 2.239 17.761 0 15 0 L 13 0 C 12.448 0 12 0.448 12 1 C 12 1.552 12.448 2 13 2 L 15 2 C 16.657 2 18 3.343 18 5 C 18 6.657 16.657 8 15 8 L 13 8 C 12.448 8 12 8.448 12 9 C 12 9.552 12.448 10 13 10 L 15 10 C 17.761 10 20 7.761 20 5 Z" fill="currentColor" fill-rule="evenodd"></path>
  <path d="M 14 5 C 14 5.552 13.552 6 13 6 L 7 6 C 6.448 6 6 5.552 6 5 C 6 4.448 6.448 4 7 4 L 13 4 C 13.552 4 14 4.448 14 5 Z" fill="currentColor" fill-rule="evenodd"></path>
</svg>