<svg xmlns="http://www.w3.org/2000/svg" width="16" height="20" viewBox="0 0 16 20" fill="none">
  <path d="M 14 12 L 14 8 C 14 6.058 13.996 4.802 13.871 3.877 C 13.755 3.01 13.566 2.738 13.414 2.586 C 13.262 2.434 12.99 2.245 12.123 2.129 C 11.198 2.004 9.942 2 8 2 C 6.058 2 4.802 2.004 3.877 2.129 C 3.01 2.245 2.738 2.434 2.586 2.586 C 2.434 2.738 2.245 3.01 2.129 3.877 C 2.004 4.802 2 6.058 2 8 L 2 12 C 2 13.942 2.004 15.198 2.129 16.123 C 2.245 16.99 2.434 17.262 2.586 17.414 C 2.738 17.566 3.01 17.755 3.877 17.871 C 4.802 17.996 6.058 18 8 18 C 9.942 18 11.198 17.996 12.123 17.871 C 12.99 17.755 13.262 17.566 13.414 17.414 C 13.566 17.262 13.755 16.99 13.871 16.123 C 13.996 15.198 14 13.942 14 12 Z M 1.172 1.172 C 0 2.343 0 4.229 0 8 L 0 12 C 0 15.771 0 17.657 1.172 18.828 C 2.343 20 4.229 20 8 20 C 11.771 20 13.657 20 14.828 18.828 C 16 17.657 16 15.771 16 12 L 16 8 C 16 4.229 16 2.343 14.828 1.172 C 13.657 0 11.771 0 8 0 C 4.229 0 2.343 0 1.172 1.172 Z" fill="currentColor" fill-rule="evenodd"></path>
  <path d="M 12 8 C 12 8.552 11.552 9 11 9 L 5 9 C 4.448 9 4 8.552 4 8 C 4 7.448 4.448 7 5 7 L 11 7 C 11.552 7 12 7.448 12 8 Z" fill="currentColor" fill-rule="evenodd"></path>
  <path d="M 12 12 C 12 12.552 11.552 13 11 13 L 5 13 C 4.448 13 4 12.552 4 12 C 4 11.448 4.448 11 5 11 L 11 11 C 11.552 11 12 11.448 12 12 Z" fill="currentColor" fill-rule="evenodd"></path>
</svg>