<svg xmlns="http://www.w3.org/2000/svg" width="20" height="20" viewBox="0 0 20 20" fill="none">
  <path d="M 10 18 C 14.418 18 18 14.418 18 10 C 18 5.582 14.418 2 10 2 C 5.582 2 2 5.582 2 10 C 2 14.418 5.582 18 10 18 Z M 10 20 C 15.523 20 20 15.523 20 10 C 20 4.477 15.523 0 10 0 C 4.477 0 0 4.477 0 10 C 0 15.523 4.477 20 10 20 Z" fill="currentColor" fill-rule="evenodd"></path>
  <path d="M 7 7 C 7 5.343 8.343 4 10 4 C 11.657 4 13 5.343 13 7 L 13 7.5 C 13 8.052 12.552 8.5 12 8.5 C 11.448 8.5 11 8.052 11 7.5 L 11 7 C 11 6.448 10.552 6 10 6 C 9.448 6 9 6.448 9 7 L 9 7.5 C 9 8.052 8.552 8.5 8 8.5 C 7.448 8.5 7 8.052 7 7.5 L 7 7 Z" fill="currentColor" fill-rule="evenodd"></path>
  <path d="M 8.968 7.5 L 11.032 7.5 C 11.471 7.5 11.849 7.5 12.162 7.521 C 12.492 7.544 12.822 7.593 13.148 7.728 C 13.883 8.033 14.467 8.617 14.772 9.352 C 14.907 9.678 14.956 10.008 14.979 10.338 C 15 10.651 15 11.029 15 11.468 L 15 11.532 C 15 11.971 15 12.349 14.979 12.662 C 14.956 12.992 14.907 13.322 14.772 13.648 C 14.467 14.383 13.883 14.967 13.148 15.272 C 12.822 15.407 12.492 15.456 12.162 15.479 C 11.849 15.5 11.471 15.5 11.032 15.5 L 8.968 15.5 C 8.529 15.5 8.151 15.5 7.838 15.479 C 7.508 15.456 7.178 15.407 6.852 15.272 C 6.117 14.967 5.533 14.383 5.228 13.648 C 5.093 13.322 5.044 12.992 5.021 12.662 C 5 12.349 5 11.971 5 11.532 L 5 11.468 C 5 11.029 5 10.651 5.021 10.338 C 5.044 10.008 5.093 9.678 5.228 9.352 C 5.533 8.617 6.117 8.033 6.852 7.728 C 7.178 7.593 7.508 7.544 7.838 7.521 C 8.151 7.5 8.529 7.5 8.968 7.5 Z M 7 11.5 C 7 11.98 7.001 12.289 7.017 12.526 C 7.032 12.754 7.059 12.841 7.076 12.883 C 7.178 13.128 7.372 13.322 7.617 13.424 C 7.659 13.441 7.746 13.468 7.974 13.483 C 8.211 13.499 8.52 13.5 9 13.5 L 11 13.5 C 11.48 13.5 11.789 13.499 12.026 13.483 C 12.254 13.468 12.341 13.441 12.383 13.424 C 12.628 13.322 12.822 13.128 12.924 12.883 C 12.941 12.841 12.968 12.754 12.983 12.526 C 12.999 12.289 13 11.98 13 11.5 C 13 11.02 12.999 10.711 12.983 10.474 C 12.968 10.246 12.941 10.159 12.924 10.117 C 12.822 9.872 12.628 9.678 12.383 9.576 C 12.341 9.559 12.254 9.532 12.026 9.517 C 11.789 9.501 11.48 9.5 11 9.5 L 9 9.5 C 8.52 9.5 8.211 9.501 7.974 9.517 C 7.746 9.532 7.659 9.559 7.617 9.576 C 7.372 9.678 7.178 9.872 7.076 10.117 C 7.059 10.159 7.032 10.246 7.017 10.474 C 7.001 10.711 7 11.02 7 11.5 Z" fill="currentColor" fill-rule="evenodd"></path>
  <path d="M 11 11.5 C 11 12.052 10.552 12.5 10 12.5 C 9.448 12.5 9 12.052 9 11.5 C 9 10.948 9.448 10.5 10 10.5 C 10.552 10.5 11 10.948 11 11.5 Z" fill="currentColor" fill-rule="nonzero"></path>
</svg>