<svg xmlns="http://www.w3.org/2000/svg" width="20" height="16" viewBox="0 0 20 16" fill="none">
  <path d="M 12 2 L 8 2 C 6.058 2 4.802 2.004 3.877 2.129 C 3.01 2.245 2.738 2.434 2.586 2.586 C 2.434 2.738 2.245 3.01 2.129 3.877 C 2.004 4.802 2 6.058 2 8 C 2 9.942 2.004 11.198 2.129 12.123 C 2.245 12.99 2.434 13.262 2.586 13.414 C 2.738 13.566 3.01 13.755 3.877 13.871 C 4.802 13.996 6.058 14 8 14 L 12 14 C 13.942 14 15.198 13.996 16.123 13.871 C 16.99 13.755 17.262 13.566 17.414 13.414 C 17.566 13.262 17.755 12.99 17.871 12.123 C 17.996 11.198 18 9.942 18 8 C 18 6.058 17.996 4.802 17.871 3.877 C 17.755 3.01 17.566 2.738 17.414 2.586 C 17.262 2.434 16.99 2.245 16.123 2.129 C 15.198 2.004 13.942 2 12 2 Z M 1.172 1.172 C 0 2.343 0 4.229 0 8 C 0 11.771 0 13.657 1.172 14.828 C 2.343 16 4.229 16 8 16 L 12 16 C 15.771 16 17.657 16 18.828 14.828 C 20 13.657 20 11.771 20 8 C 20 4.229 20 2.343 18.828 1.172 C 17.657 0 15.771 0 12 0 L 8 0 C 4.229 0 2.343 0 1.172 1.172 Z" fill="currentColor" fill-rule="evenodd"></path>
</svg>