<svg xmlns="http://www.w3.org/2000/svg" width="16" height="18" viewBox="0 0 16 18" fill="none">
  <path d="M 1 0 C 0.448 0 0 0.448 0 1 L 0 3.453 C 0 6.003 1.274 8.385 3.396 9.799 C 3.762 10.043 4.238 10.043 4.604 9.799 C 6.726 8.385 8 6.003 8 3.453 L 8 1 C 8 0.448 7.552 0 7 0 C 6.448 0 6 0.448 6 1 L 6 3.453 C 6 5.122 5.26 6.693 4 7.756 C 2.74 6.693 2 5.122 2 3.453 L 2 1 C 2 0.448 1.552 0 1 0 Z" fill="currentColor" fill-rule="evenodd"></path>
  <path d="M 12 2.004 L 12 17 C 12 17.552 11.552 18 11 18 C 10.448 18 10 17.552 10 17 L 10 2 C 10 -0.17 12.93 -0.747 13.834 1.143 L 15.806 5.266 C 16.006 5.685 16.053 6.16 15.939 6.611 L 15.012 10.258 C 14.876 10.794 14.332 11.117 13.797 10.981 C 13.262 10.845 12.938 10.301 13.074 9.766 L 13.999 6.124 L 12.03 2.006 C 12.029 2.004 12.028 2.002 12.027 2 C 12.022 2 12.015 2.001 12.008 2.002 C 12.005 2.003 12.002 2.003 12 2.004 Z" fill="currentColor" fill-rule="evenodd"></path>
  <path d="M 4 0 C 4.552 0 5 0.448 5 1 L 5 17 C 5 17.552 4.552 18 4 18 C 3.448 18 3 17.552 3 17 L 3 1 C 3 0.448 3.448 0 4 0 Z" fill="currentColor" fill-rule="evenodd"></path>
</svg>