<svg xmlns="http://www.w3.org/2000/svg" width="20" height="20" viewBox="0 0 20 20" fill="none">
  <path d="M 9 16 C 12.866 16 16 12.866 16 9 C 16 5.134 12.866 2 9 2 C 5.134 2 2 5.134 2 9 C 2 12.866 5.134 16 9 16 Z M 9 18 C 13.971 18 18 13.971 18 9 C 18 4.029 13.971 0 9 0 C 4.029 0 0 4.029 0 9 C 0 13.971 4.029 18 9 18 Z" fill="currentColor" fill-rule="evenodd"></path>
  <path d="M 14.293 14.293 C 14.683 13.902 15.317 13.902 15.707 14.293 L 19.707 18.293 C 20.098 18.683 20.098 19.317 19.707 19.707 C 19.317 20.098 18.683 20.098 18.293 19.707 L 14.293 15.707 C 13.902 15.317 13.902 14.683 14.293 14.293 Z" fill="currentColor" fill-rule="evenodd"></path>
</svg>