<svg xmlns="http://www.w3.org/2000/svg" width="18" height="16" viewBox="0 0 18 16" fill="none">
  <path d="M 4 0 C 3.448 0 3 0.448 3 1 L 3 12.586 L 1.707 11.293 C 1.317 10.902 0.683 10.902 0.293 11.293 C -0.098 11.683 -0.098 12.317 0.293 12.707 L 3.293 15.707 C 3.48 15.895 3.735 16 4 16 C 4.265 16 4.52 15.895 4.707 15.707 L 7.707 12.707 C 8.098 12.317 8.098 11.683 7.707 11.293 C 7.317 10.902 6.683 10.902 6.293 11.293 L 5 12.586 L 5 1 C 5 0.448 4.552 0 4 0 Z" fill="currentColor" fill-rule="evenodd"></path>
  <path d="M 18 8 C 18 8.552 17.552 9 17 9 L 11 9 C 10.448 9 10 8.552 10 8 C 10 7.448 10.448 7 11 7 L 17 7 C 17.552 7 18 7.448 18 8 Z" fill="currentColor" fill-rule="evenodd"></path>
  <path d="M 18 4 C 18 4.552 17.552 5 17 5 L 9 5 C 8.448 5 8 4.552 8 4 C 8 3.448 8.448 3 9 3 L 17 3 C 17.552 3 18 3.448 18 4 Z" fill="currentColor" fill-rule="evenodd"></path>
  <path d="M 18 12 C 18 12.552 17.552 13 17 13 L 13 13 C 12.448 13 12 12.552 12 12 C 12 11.448 12.448 11 13 11 L 17 11 C 17.552 11 18 11.448 18 12 Z" fill="currentColor" fill-rule="evenodd"></path>
</svg>