<svg xmlns="http://www.w3.org/2000/svg" width="16" height="16" viewBox="0 0 16 16" fill="none">
  <path d="M 0.293 0.293 C 0.683 -0.098 1.317 -0.098 1.707 0.293 L 15.707 14.293 C 16.098 14.683 16.098 15.317 15.707 15.707 C 15.317 16.098 14.683 16.098 14.293 15.707 L 0.293 1.707 C -0.098 1.317 -0.098 0.683 0.293 0.293 Z" fill="currentColor" fill-rule="evenodd"></path>
  <path d="M 15.707 0.293 C 16.098 0.683 16.098 1.317 15.707 1.707 L 1.707 15.707 C 1.317 16.098 0.683 16.098 0.293 15.707 C -0.098 15.317 -0.098 14.683 0.293 14.293 L 14.293 0.293 C 14.683 -0.098 15.317 -0.098 15.707 0.293 Z" fill="currentColor" fill-rule="evenodd"></path>
</svg>