<svg xmlns="http://www.w3.org/2000/svg" width="20" height="20" viewBox="0 0 20 20" fill="none">
  <path d="M 8.481 2.388 C 7.471 2.642 6.765 2.989 6.368 3.344 C 5.957 3.712 5.325 3.677 4.956 3.266 C 4.588 2.854 4.623 2.222 5.035 1.854 C 5.773 1.193 6.832 0.74 7.994 0.449 C 9.175 0.152 10.55 0 12 0 C 14.014 0 15.903 0.294 17.328 0.875 C 18.68 1.427 20 2.42 20 4 L 20 16 C 20 17.58 18.68 18.573 17.328 19.125 C 15.903 19.706 14.014 20 12 20 C 10.458 20 9 19.828 7.77 19.493 C 6.565 19.164 5.462 18.648 4.759 17.873 C 4.388 17.464 4.419 16.832 4.828 16.461 C 5.237 16.09 5.87 16.121 6.241 16.53 C 6.571 16.894 7.245 17.277 8.296 17.563 C 9.32 17.842 10.596 18 12 18 C 13.852 18 15.463 17.726 16.572 17.273 C 17.753 16.791 18 16.284 18 16 L 18 12.661 C 17.806 12.749 17.596 12.839 17.371 12.928 C 16.042 13.46 14.163 14 12 14 C 11.448 14 11 13.552 11 13 C 11 12.448 11.448 12 12 12 C 13.837 12 15.458 11.54 16.629 11.072 C 17.211 10.838 17.675 10.606 17.99 10.435 C 17.993 10.433 17.997 10.431 18 10.429 L 18 6.809 C 17.781 6.927 17.555 7.032 17.328 7.125 C 15.903 7.706 14.014 8 12 8 C 11.448 8 11 7.552 11 7 C 11 6.448 11.448 6 12 6 C 13.852 6 15.463 5.726 16.572 5.273 C 17.753 4.791 18 4.284 18 4 C 18 3.716 17.753 3.209 16.572 2.727 C 15.463 2.274 13.852 2 12 2 C 10.681 2 9.474 2.139 8.481 2.388 Z" fill="currentColor" fill-rule="evenodd"></path>
  <path d="M 10 10 C 10 10.552 9.552 11 9 11 L 3.414 11 L 4.707 12.293 C 5.098 12.683 5.098 13.317 4.707 13.707 C 4.317 14.098 3.683 14.098 3.293 13.707 L 0.293 10.707 C -0.098 10.317 -0.098 9.683 0.293 9.293 L 3.293 6.293 C 3.683 5.902 4.317 5.902 4.707 6.293 C 5.098 6.683 5.098 7.317 4.707 7.707 L 3.414 9 L 9 9 C 9.552 9 10 9.448 10 10 Z" fill="currentColor" fill-rule="evenodd"></path>
</svg>