<svg xmlns="http://www.w3.org/2000/svg" width="20" height="20" viewBox="0 0 20 20" fill="none">
  <path d="M 17 5.884 C 17 5.922 17 5.961 17 6 C 17 6.552 16.552 7 16 7 C 15.448 7 15 6.552 15 6 C 15 5.023 14.995 4.68 14.942 4.415 C 14.706 3.225 13.775 2.294 12.585 2.058 C 12.32 2.005 11.977 2 11 2 L 8.5 2 C 6.832 2 5.669 2.002 4.781 2.107 C 3.915 2.209 3.442 2.397 3.097 2.681 C 2.945 2.806 2.806 2.945 2.681 3.097 C 2.397 3.442 2.209 3.915 2.107 4.781 C 2.002 5.669 2 6.832 2 8.5 L 2 15 C 2 16.657 3.343 18 5 18 C 5.552 18 6 18.448 6 19 C 6 19.552 5.552 20 5 20 C 2.239 20 0 17.761 0 15 L 0 8.437 C 0 6.847 0 5.565 0.12 4.546 C 0.245 3.491 0.511 2.589 1.135 1.828 C 1.343 1.575 1.575 1.343 1.828 1.135 C 2.589 0.511 3.491 0.245 4.546 0.12 C 5.565 0 6.847 0 8.437 0 L 11 0 C 11.039 0 11.078 0 11.116 0 C 11.933 0 12.491 0 12.975 0.096 C 14.959 0.491 16.509 2.041 16.904 4.025 C 17 4.509 17 5.067 17 5.884 Z" fill="currentColor" fill-rule="evenodd"></path>
  <path d="M 13 5 C 13 5.552 12.552 6 12 6 L 5 6 C 4.448 6 4 5.552 4 5 C 4 4.448 4.448 4 5 4 L 12 4 C 12.552 4 13 4.448 13 5 Z" fill="currentColor" fill-rule="evenodd"></path>
  <path d="M 10 9 C 10 9.552 9.552 10 9 10 L 5 10 C 4.448 10 4 9.552 4 9 C 4 8.448 4.448 8 5 8 L 9 8 C 9.552 8 10 8.448 10 9 Z" fill="currentColor" fill-rule="evenodd"></path>
  <path d="M 15.576 8.781 C 16.603 7.755 18.251 7.738 19.257 8.743 C 20.263 9.747 20.245 11.394 19.218 12.42 L 13.053 18.58 C 12.784 18.848 12.454 19.047 12.092 19.157 L 9.487 19.947 C 8.6 20.217 7.785 19.407 8.051 18.519 L 8.925 15.601 C 8.974 15.437 9.063 15.288 9.185 15.166 L 15.576 8.781 Z M 18.017 9.981 C 17.682 9.646 17.132 9.652 16.79 9.994 L 10.533 16.246 L 10.011 17.987 L 11.619 17.499 C 11.702 17.473 11.778 17.428 11.839 17.367 L 18.004 11.207 C 18.346 10.865 18.352 10.316 18.017 9.981 Z" fill="currentColor" fill-rule="evenodd"></path>
  <path d="M 14.293 10.293 C 14.683 9.902 15.317 9.902 15.707 10.293 L 17.707 12.293 C 18.098 12.683 18.098 13.317 17.707 13.707 C 17.317 14.098 16.683 14.098 16.293 13.707 L 14.293 11.707 C 13.902 11.317 13.902 10.683 14.293 10.293 Z" fill="currentColor" fill-rule="evenodd"></path>
</svg>