<svg xmlns="http://www.w3.org/2000/svg" width="16" height="20" viewBox="0 0 16 20" fill="none">
  <path d="M 2 12 L 2 6.667 C 2 5.384 2.002 4.555 2.059 3.927 C 2.113 3.327 2.205 3.109 2.268 3 C 2.443 2.696 2.696 2.443 3 2.268 C 3.109 2.205 3.327 2.113 3.927 2.059 C 4.555 2.002 5.384 2 6.667 2 C 7.327 2 7.688 2.002 7.946 2.025 C 7.955 2.026 7.964 2.027 7.972 2.028 C 7.973 2.036 7.974 2.045 7.975 2.054 C 7.998 2.312 8 2.673 8 3.333 L 8 4 C 8 4.026 8 4.052 8 4.079 C 8 4.479 7.999 4.954 8.054 5.364 C 8.121 5.858 8.299 6.541 8.879 7.121 C 9.459 7.701 10.142 7.879 10.636 7.946 C 11.046 8.001 11.521 8 11.921 8 C 11.948 8 11.974 8 12 8 C 12.999 8 13.548 8.004 13.928 8.055 C 13.933 8.056 13.938 8.057 13.943 8.057 C 13.943 8.062 13.944 8.067 13.945 8.072 C 13.996 8.452 14 9.001 14 10 L 14 12 C 14 13.942 13.996 15.198 13.871 16.123 C 13.755 16.99 13.566 17.262 13.414 17.414 C 13.262 17.566 12.99 17.755 12.123 17.871 C 11.198 17.996 9.942 18 8 18 C 6.058 18 4.802 17.996 3.877 17.871 C 3.01 17.755 2.738 17.566 2.586 17.414 C 2.434 17.262 2.245 16.99 2.129 16.123 C 2.004 15.198 2 13.942 2 12 Z M 13.903 7.862 L 13.904 7.864 Z M 1.172 18.828 C 0 17.657 0 15.771 0 12 L 0 6.667 C 0 4.174 0 2.928 0.536 2 C 0.887 1.392 1.392 0.887 2 0.536 C 2.928 0 4.174 0 6.667 0 C 7.913 0 8.536 0 9 0.268 C 9.304 0.443 9.557 0.696 9.732 1 C 10 1.464 10 2.087 10 3.333 L 10 4 C 10 4.943 10 5.414 10.293 5.707 C 10.586 6 11.057 6 12 6 C 13.886 6 14.828 6 15.414 6.586 C 16 7.172 16 8.114 16 10 L 16 12 C 16 15.771 16 17.657 14.828 18.828 C 13.657 20 11.771 20 8 20 C 4.229 20 2.343 20 1.172 18.828 Z" fill="currentColor" fill-rule="evenodd"></path>
  <path d="M 16 9 C 16 6.814 15.132 4.717 13.586 3.172 L 12.475 2.061 C 11.155 0.741 9.366 0 7.5 0 L 7.5 2 C 8.836 2 10.116 2.531 11.061 3.475 L 12.172 4.586 C 13.342 5.757 14 7.344 14 9 L 16 9 Z" fill="currentColor" fill-rule="evenodd"></path>
  <path d="M 8 9 C 8.552 9 9 9.448 9 10 L 9 12.599 L 9.296 12.306 C 9.688 11.917 10.321 11.919 10.71 12.312 C 11.099 12.704 11.096 13.337 10.704 13.726 L 8.704 15.71 C 8.314 16.097 7.686 16.097 7.296 15.71 L 5.296 13.726 C 4.904 13.337 4.901 12.704 5.29 12.312 C 5.679 11.919 6.312 11.917 6.704 12.306 L 7 12.599 L 7 10 C 7 9.448 7.448 9 8 9 Z" fill="currentColor" fill-rule="evenodd"></path>
</svg>