<svg xmlns="http://www.w3.org/2000/svg" width="20" height="18" viewBox="0 0 20 18" fill="none">
  <path d="M 13.918 2.754 C 8.907 0.793 2.684 2.746 0.086 8.612 C -0.029 8.87 -0.029 9.164 0.086 9.422 C 0.838 11.121 1.895 12.491 3.138 13.534 L 4.562 12.109 C 3.583 11.322 2.737 10.291 2.104 9.017 C 4.175 4.843 8.546 3.283 12.337 4.335 L 13.918 2.754 Z M 11.414 5.257 C 10.975 5.091 10.498 5 10 5 C 7.791 5 6 6.791 6 9 C 6 9.498 6.091 9.975 6.257 10.414 L 8.033 8.639 C 8.181 7.824 8.824 7.181 9.639 7.033 L 11.414 5.257 Z M 9.377 12.952 L 13.952 8.377 C 13.983 8.58 14 8.788 14 9 C 14 11.209 12.209 13 10 13 C 9.788 13 9.58 12.983 9.377 12.952 Z M 8.45 13.879 C 12.042 14.525 15.967 12.905 17.896 9.017 C 17.377 7.973 16.715 7.092 15.954 6.374 L 17.372 4.956 C 18.395 5.932 19.267 7.151 19.914 8.612 C 20.029 8.87 20.029 9.164 19.914 9.422 C 17.438 15.012 11.671 17.049 6.797 15.531 L 8.45 13.879 Z" fill="currentColor" fill-rule="evenodd"></path>
  <path d="M 18.707 0.293 C 19.098 0.683 19.098 1.317 18.707 1.707 L 2.707 17.707 C 2.317 18.098 1.683 18.098 1.293 17.707 C 0.902 17.317 0.902 16.683 1.293 16.293 L 17.293 0.293 C 17.683 -0.098 18.317 -0.098 18.707 0.293 Z" fill="currentColor" fill-rule="evenodd"></path>
</svg>