<svg xmlns="http://www.w3.org/2000/svg" width="20" height="20" viewBox="0 0 20 20" fill="none">
  <path d="M 4 10 C 4 10.552 3.552 11 3 11 L 1 11 C 0.448 11 0 10.552 0 10 C 0 9.448 0.448 9 1 9 L 3 9 C 3.552 9 4 9.448 4 10 Z" fill="currentColor" fill-rule="evenodd"></path>
  <path d="M 20 10 C 20 10.552 19.552 11 19 11 L 17 11 C 16.448 11 16 10.552 16 10 C 16 9.448 16.448 9 17 9 L 19 9 C 19.552 9 20 9.448 20 10 Z" fill="currentColor" fill-rule="evenodd"></path>
  <path d="M 10 4 C 9.448 4 9 3.552 9 3 L 9 1 C 9 0.448 9.448 0 10 0 C 10.552 0 11 0.448 11 1 L 11 3 C 11 3.552 10.552 4 10 4 Z" fill="currentColor" fill-rule="evenodd"></path>
  <path d="M 10 20 C 9.448 20 9 19.552 9 19 L 9 17 C 9 16.448 9.448 16 10 16 C 10.552 16 11 16.448 11 17 L 11 19 C 11 19.552 10.552 20 10 20 Z" fill="currentColor" fill-rule="evenodd"></path>
  <path d="M 6.121 14.293 C 6.512 14.683 6.512 15.317 6.121 15.707 L 4.707 17.121 C 4.317 17.512 3.683 17.512 3.293 17.121 C 2.902 16.731 2.902 16.098 3.293 15.707 L 4.707 14.293 C 5.098 13.902 5.731 13.902 6.121 14.293 Z" fill="currentColor" fill-rule="evenodd"></path>
  <path d="M 14.293 5.707 C 13.902 5.317 13.902 4.683 14.293 4.293 L 15.707 2.879 C 16.098 2.488 16.731 2.488 17.121 2.879 C 17.512 3.269 17.512 3.902 17.121 4.293 L 15.707 5.707 C 15.317 6.098 14.683 6.098 14.293 5.707 Z" fill="currentColor" fill-rule="evenodd"></path>
  <path d="M 5.707 5.707 C 5.317 6.098 4.683 6.098 4.293 5.707 L 2.879 4.293 C 2.488 3.902 2.488 3.269 2.879 2.879 C 3.269 2.488 3.902 2.488 4.293 2.879 L 5.707 4.293 C 6.098 4.683 6.098 5.317 5.707 5.707 Z" fill="currentColor" fill-rule="evenodd"></path>
  <path d="M 14.293 14.293 C 14.683 13.902 15.317 13.902 15.707 14.293 L 17.121 15.707 C 17.512 16.098 17.512 16.731 17.121 17.121 C 16.731 17.512 16.098 17.512 15.707 17.121 L 14.293 15.707 C 13.902 15.317 13.902 14.683 14.293 14.293 Z" fill="currentColor" fill-rule="evenodd"></path>
</svg>