<svg xmlns="http://www.w3.org/2000/svg" width="18" height="18" viewBox="0 0 18 18" fill="none">
  <path d="M 11.101 0.249 C 9.017 -0.252 6.823 0.008 4.914 0.981 C 3.005 1.954 1.505 3.576 0.685 5.556 C -0.135 7.536 -0.222 9.743 0.44 11.781 C 1.103 13.819 2.47 15.554 4.298 16.674 C 6.125 17.793 8.291 18.224 10.408 17.889 C 12.524 17.554 14.452 16.475 15.844 14.845 C 17.235 13.216 18 11.143 18 9 C 18 8.448 17.552 8 17 8 C 16.448 8 16 8.448 16 9 C 16 10.667 15.405 12.279 14.323 13.546 C 13.24 14.814 11.741 15.653 10.095 15.914 C 8.449 16.175 6.764 15.839 5.343 14.968 C 3.921 14.098 2.858 12.748 2.343 11.163 C 1.828 9.578 1.895 7.861 2.533 6.321 C 3.171 4.781 4.337 3.52 5.822 2.763 C 7.307 2.006 9.013 1.804 10.634 2.193 C 12.255 2.583 13.683 3.537 14.663 4.886 L 16.281 3.71 C 15.022 1.976 13.185 0.749 11.101 0.249 Z" fill="currentColor" fill-rule="evenodd"></path>
  <path d="M 16 0 C 15.448 0 15 0.448 15 1 L 15 4 L 12 4 C 11.448 4 11 4.448 11 5 C 11 5.552 11.448 6 12 6 L 16 6 C 16.265 6 16.52 5.895 16.707 5.707 C 16.895 5.52 17 5.265 17 5 L 17 1 C 17 0.448 16.552 0 16 0 Z" fill="currentColor" fill-rule="evenodd"></path>
</svg>