<svg xmlns="http://www.w3.org/2000/svg" width="18" height="18" viewBox="0 0 18 18" fill="none">
  <path d="M 9 0 C 9.552 0 10 0.448 10 1 L 10 10.586 L 11.293 9.293 C 11.683 8.902 12.317 8.902 12.707 9.293 C 13.098 9.683 13.098 10.317 12.707 10.707 L 9.707 13.707 C 9.317 14.098 8.683 14.098 8.293 13.707 L 5.293 10.707 C 4.902 10.317 4.902 9.683 5.293 9.293 C 5.683 8.902 6.317 8.902 6.707 9.293 L 8 10.586 L 8 1 C 8 0.448 8.448 0 9 0 Z" fill="currentColor" fill-rule="evenodd"></path>
  <path d="M 18 17 C 18 17.552 17.552 18 17 18 L 1 18 C 0.448 18 0 17.552 0 17 C 0 16.448 0.448 16 1 16 L 17 16 C 17.552 16 18 16.448 18 17 Z" fill="currentColor" fill-rule="evenodd"></path>
</svg>