<svg xmlns="http://www.w3.org/2000/svg" width="20" height="20" viewBox="0 0 20 20" fill="none">
  <path d="M 17.746 10.691 L 10.516 3.461 C 8.568 1.513 5.409 1.513 3.461 3.461 C 1.513 5.409 1.513 8.568 3.461 10.516 L 10.691 17.746 C 11.03 18.085 11.58 18.085 11.919 17.746 L 17.746 11.919 C 18.085 11.58 18.085 11.03 17.746 10.691 Z M 2.047 2.047 C -0.682 4.776 -0.682 9.201 2.047 11.93 L 9.277 19.16 C 10.397 20.28 12.213 20.28 13.334 19.16 L 19.16 13.334 C 20.28 12.213 20.28 10.397 19.16 9.277 L 11.93 2.047 C 9.201 -0.682 4.776 -0.682 2.047 2.047 Z" fill="currentColor" fill-rule="evenodd"></path>
  <path d="M 6 8 C 7.105 8 8 7.105 8 6 C 8 4.895 7.105 4 6 4 C 4.896 4 4 4.895 4 6 C 4 7.105 4.896 8 6 8 Z" fill="currentColor" fill-rule="evenodd"></path>
</svg>