<svg xmlns="http://www.w3.org/2000/svg" width="20" height="16" viewBox="0 0 20 16" fill="none">
  <path d="M 10 10 C 9.448 10 9 9.552 9 9 L 9 3.414 L 7.707 4.707 C 7.317 5.098 6.683 5.098 6.293 4.707 C 5.902 4.317 5.902 3.683 6.293 3.293 L 9.293 0.293 C 9.683 -0.098 10.317 -0.098 10.707 0.293 L 13.707 3.293 C 14.098 3.683 14.098 4.317 13.707 4.707 C 13.317 5.098 12.683 5.098 12.293 4.707 L 11 3.414 L 11 9 C 11 9.552 10.552 10 10 10 Z" fill="currentColor" fill-rule="evenodd"></path>
  <path d="M 17.964 11.121 C 17.999 10.605 18 9.946 18 9 C 18 8.448 18.448 8 19 8 C 19.552 8 20 8.448 20 9 L 20 9.036 C 20 9.937 20 10.665 19.96 11.257 C 19.918 11.865 19.831 12.404 19.619 12.913 C 19.112 14.139 18.139 15.112 16.913 15.619 C 16.404 15.831 15.865 15.918 15.257 15.96 C 14.665 16 13.937 16 13.036 16 L 6.964 16 C 6.063 16 5.335 16 4.743 15.96 C 4.135 15.918 3.596 15.831 3.087 15.619 C 1.861 15.112 0.888 14.139 0.381 12.913 C 0.169 12.404 0.082 11.865 0.04 11.257 C 0 10.665 0 9.937 0 9.036 L 0 9 C 0 8.448 0.448 8 1 8 C 1.552 8 2 8.448 2 9 C 2 9.946 2.001 10.605 2.036 11.121 C 2.07 11.627 2.135 11.923 2.228 12.148 C 2.533 12.883 3.117 13.467 3.852 13.772 C 4.077 13.865 4.373 13.93 4.879 13.964 C 5.395 13.999 6.054 14 7 14 L 13 14 C 13.946 14 14.605 13.999 15.121 13.964 C 15.627 13.93 15.923 13.865 16.148 13.772 C 16.883 13.467 17.467 12.883 17.772 12.148 C 17.865 11.923 17.93 11.627 17.964 11.121 Z" fill="currentColor" fill-rule="evenodd"></path>
</svg>